# xmcd
#
# Track frame offsets: 
#        150
#        29408
#        51996
#        83694
#        122644
#        153395
#        195528
#        219688
#
# Disc length: 3202 seconds
#
# Revision: 1
# Processed by: cddbd v1.5.2PL0 Copyright (c) Steve Scherf et al.
# Submitted via: ExactAudioCopy v0.99pb5
#
DISCID=690c8008
DTITLE=Oliver Shanti - Budha and Bonsai - Chinese Relaxation
DYEAR=2006
DGENRE=New Age
TTITLE0=Sesshu`s Profound Paintings
TTITLE1=The Secret Of The Bambu Tea House
TTITLE2=Senzei Kentaka`s Katsura Garden
TTITLE3=Shakyamuni`s Kyoto Gardens
TTITLE4=Maitreya And His Mount Kameyama
TTITLE5=Senzei Muso Soseki Kokushi Tempel Gardens
TTITLE6=Avalokiteshvara Tsukimachiyama Creation
TTITLE7=Mounteins And Dreams
EXTD=YEAR: 2006
EXTT0=
EXTT1=
EXTT2=
EXTT3=
EXTT4=
EXTT5=
EXTT6=
EXTT7=
PLAYORDER=
